<?xml version="1.0" encoding="UTF-8"?><svg id="Capa_1" xmlns="http://www.w3.org/2000/svg" viewBox="0 0 98.81 91.43"><defs><style>.cls-1{fill:#69c29e;stroke-width:0px;}</style></defs><path class="cls-1" d="M69.24,58.47c-3.18-1.68-6.37-3.33-9.56-4.99-.84-.44-1.75-.54-2.58-.11-.68.36-1.34.88-1.83,1.47-1.17,1.38-2.24,2.84-3.35,4.27-7.17-3.7-12.41-9.18-16.13-16.29,1.53-1.22,2.98-2.37,4.41-3.53,1.45-1.17,1.81-2.7.99-4.35-1.61-3.22-3.23-6.43-4.88-9.62-1.02-1.98-3.16-2.49-5-1.25-1.99,1.34-3.96,2.71-5.95,4.04-1.57,1.05-2.31,2.47-2.23,4.37.14,3.57.83,7.02,2.17,10.32,4.68,11.49,12.79,19.84,23.66,25.58,4.07,2.15,8.39,3.47,13.03,3.68,2.06.1,3.65-.6,4.77-2.36,1.29-2.02,2.62-4.02,3.89-6.05,1.3-2.07.76-4.04-1.41-5.18h0Z"/><path class="cls-1" d="M75.68,43.55c-.07-.58-.19-1.15-.3-1.72-2.18-11.46-12.13-20.88-23.69-22.43-1.49-.2-2.5.4-2.76,1.64-.3,1.4.49,2.66,1.91,3,.8.2,1.62.33,2.43.53,4.5,1.12,8.37,3.33,11.5,6.77,3.32,3.64,5.31,7.93,6.19,12.76.26,1.42,1.04,2.08,2.38,2.08,1.52,0,2.53-1.12,2.35-2.63Z"/><path class="cls-1" d="M50.44,32.18c2.52.57,4.84,1.58,6.86,3.21,3.04,2.45,4.87,5.64,5.72,9.43.3,1.32,1.05,1.93,2.31,1.95,1.61.02,2.74-1.24,2.44-2.75-1.66-8.22-7.68-15.21-16.36-16.54-1.5-.23-2.65.46-2.94,1.81-.31,1.43.43,2.54,1.98,2.89h0Z"/><path class="cls-1" d="M49.66,40.12c1.05.46,2.09,1.03,3.01,1.72,1.25.93,1.86,2.32,2.4,3.76.44,1.17,1.54,1.69,2.76,1.43,1.05-.23,1.75-1.14,1.74-2.44-.02-.14-.05-.41-.14-.68-1.38-4.17-4.15-6.96-8.34-8.31-1.42-.46-2.62.13-3.02,1.44-.42,1.37.25,2.52,1.58,3.08h.01Z"/></svg>