<?xml version="1.0" encoding="UTF-8"?><svg id="Capa_1" xmlns="http://www.w3.org/2000/svg" viewBox="0 0 98.81 91.43"><defs><style>.cls-1{fill:#69c29e;stroke-width:0px;}</style></defs><path class="cls-1" d="M45.46,49.5l-23.28-20.24h0c.78-.33,1.61-.5,2.45-.5h31.31c-1.18,2.44-1.64,5.17-1.33,7.86.31,2.69,1.37,5.24,3.06,7.36l-6.35,5.53h0c-1.68,1.46-4.18,1.46-5.87,0h0ZM19.71,31.22c-.83,1.07-1.27,2.39-1.27,3.75v26.66c0,1.25.37,2.46,1.08,3.49l19.59-17.07-19.39-16.82ZM53.37,51.84c-2.86,2.46-7.09,2.46-9.95,0l-1.96-1.7-19.59,17.03c.86.43,1.8.66,2.76.66h46.02c.97,0,1.93-.22,2.79-.66l-18.88-16.39-1.21,1.06ZM69,49.46h0c-3.33,0-6.55-1.15-9.13-3.26l-2.92,2.54,18.84,16.38c.7-1.03,1.08-2.25,1.08-3.49v-14.51c-2.34,1.53-5.07,2.34-7.86,2.34h0ZM80.38,34.97c0,3.01-1.2,5.91-3.33,8.04-2.13,2.13-5.02,3.33-8.04,3.33s-5.91-1.2-8.04-3.33c-2.13-2.13-3.33-5.03-3.33-8.04s1.2-5.91,3.33-8.04c2.13-2.13,5.02-3.33,8.04-3.33,3.01,0,5.91,1.2,8.04,3.34s3.33,5.02,3.33,8.04h0ZM71.13,31.75c0-.54-.28-1.03-.73-1.32-.45-.28-1.02-.31-1.5-.08l-1.65.82c-.66.33-1,1.07-.81,1.79.19.71.85,1.2,1.59,1.15v4.07c0,.86.7,1.55,1.55,1.55s1.55-.7,1.55-1.55v-6.43Z"/></svg>