<svg width="58" height="53" viewBox="0 0 58 53" fill="none" xmlns="http://www.w3.org/2000/svg">
<path fill-rule="evenodd" clip-rule="evenodd" d="M4.6 27.16C3.56 28.11 1.94 28.03 0.989998 26.99C0.0399979 25.95 0.119998 24.33 1.16 23.38L24.89 1.77003C27.16 -0.299971 30.65 -0.299971 32.92 1.77003L43.05 10.99V7.77003C43.05 6.88003 43.78 6.15003 44.67 6.15003H48.33C49.22 6.15003 49.95 6.88003 49.95 7.77003V17.28L56.65 23.38C57.69 24.33 57.77 25.95 56.82 26.99C55.87 28.03 54.25 28.11 53.21 27.16C45 19.69 37.9 13.22 29.48 5.55003C29.16 5.25003 28.65 5.25003 28.33 5.55003L4.6 27.16Z" fill="#69C29E"/>
<path fill-rule="evenodd" clip-rule="evenodd" d="M49.78 28.06V48.79C49.78 50.67 48.25 52.2 46.37 52.2H34.87V34.85H22.94V52.2H11.44C9.56003 52.2 8.03003 50.67 8.03003 48.79V28.06L28.9 9.06L49.77 28.06H49.78Z" fill="#69C29E"/>
</svg>
